<svg viewBox="0 0 330 200" xmlns="http://www.w3.org/2000/svg"><g><g><g><g><g><line x1="40" y1="177" x2="35" y2="177" style="visibility: inherit;" fill="rgb(0, 0, 0)" stroke="rgb(204, 204, 204)" stroke-width="1px"></line><line x1="40" y1="163.3846153846154" x2="35" y2="163.3846153846154" style="visibility: inherit;" fill="rgb(0, 0, 0)" stroke="rgb(204, 204, 204)" stroke-width="1px"></line><line x1="40" y1="149.76923076923077" x2="35" y2="149.76923076923077" style="visibility: inherit;" fill="rgb(0, 0, 0)" stroke="rgb(204, 204, 204)" stroke-width="1px"></line><line x1="40" y1="136.15384615384613" x2="35" y2="136.15384615384613" style="visibility: inherit;" fill="rgb(0, 0, 0)" stroke="rgb(204, 204, 204)" stroke-width="1px"></line><line x1="40" y1="122.53846153846153" x2="35" y2="122.53846153846153" style="visibility: inherit;" fill="rgb(0, 0, 0)" stroke="rgb(204, 204, 204)" stroke-width="1px"></line><line x1="40" y1="108.92307692307693" x2="35" y2="108.92307692307693" style="visibility: inherit;" fill="rgb(0, 0, 0)" stroke="rgb(204, 204, 204)" stroke-width="1px"></line><line x1="40" y1="95.3076923076923" x2="35" y2="95.3076923076923" style="visibility: inherit;" fill="rgb(0, 0, 0)" stroke="rgb(204, 204, 204)" stroke-width="1px"></line><line x1="40" y1="81.6923076923077" x2="35" y2="81.6923076923077" style="visibility: inherit;" fill="rgb(0, 0, 0)" stroke="rgb(204, 204, 204)" stroke-width="1px"></line><line x1="40" y1="68.07692307692307" x2="35" y2="68.07692307692307" style="visibility: inherit;" fill="rgb(0, 0, 0)" stroke="rgb(204, 204, 204)" stroke-width="1px"></line><line x1="40" y1="54.46153846153847" x2="35" y2="54.46153846153847" style="visibility: inherit;" fill="rgb(0, 0, 0)" stroke="rgb(204, 204, 204)" stroke-width="1px"></line><line x1="40" y1="40.84615384615384" x2="35" y2="40.84615384615384" style="visibility: inherit;" fill="rgb(0, 0, 0)" stroke="rgb(204, 204, 204)" stroke-width="1px"></line><line x1="40" y1="27.230769230769234" x2="35" y2="27.230769230769234" style="visibility: inherit;" fill="rgb(0, 0, 0)" stroke="rgb(204, 204, 204)" stroke-width="1px"></line><line x1="40" y1="13.615384615384606" x2="35" y2="13.615384615384606" style="visibility: inherit;" fill="rgb(0, 0, 0)" stroke="rgb(204, 204, 204)" stroke-width="1px"></line><line x1="40" y1="0" x2="35" y2="0" style="visibility: inherit;" fill="rgb(0, 0, 0)" stroke="rgb(204, 204, 204)" stroke-width="1px"></line></g><g transform="translate(30, 0)"><text x="0" y="177" dx="0em" dy="0.3em" style="text-anchor: end; visibility: hidden; font-family: Roboto, sans-serif; font-size: 12px; font-weight: 200;" fill="rgb(33, 33, 33)" stroke="none" stroke-width="1px">3</text><text x="0" y="163.3846153846154" dx="0em" dy="0.3em" style="text-anchor: end; visibility: inherit; font-family: Roboto, sans-serif; font-size: 12px; font-weight: 200;" fill="rgb(33, 33, 33)" stroke="none" stroke-width="1px">3.5</text><text x="0" y="149.76923076923077" dx="0em" dy="0.3em" style="text-anchor: end; visibility: hidden; font-family: Roboto, sans-serif; font-size: 12px; font-weight: 200;" fill="rgb(33, 33, 33)" stroke="none" stroke-width="1px">4</text><text x="0" y="136.15384615384613" dx="0em" dy="0.3em" style="text-anchor: end; visibility: inherit; font-family: Roboto, sans-serif; font-size: 12px; font-weight: 200;" fill="rgb(33, 33, 33)" stroke="none" stroke-width="1px">4.5</text><text x="0" y="122.53846153846153" dx="0em" dy="0.3em" style="text-anchor: end; visibility: hidden; font-family: Roboto, sans-serif; font-size: 12px; font-weight: 200;" fill="rgb(33, 33, 33)" stroke="none" stroke-width="1px">5</text><text x="0" y="108.92307692307693" dx="0em" dy="0.3em" style="text-anchor: end; visibility: inherit; font-family: Roboto, sans-serif; font-size: 12px; font-weight: 200;" fill="rgb(33, 33, 33)" stroke="none" stroke-width="1px">5.5</text><text x="0" y="95.3076923076923" dx="0em" dy="0.3em" style="text-anchor: end; visibility: hidden; font-family: Roboto, sans-serif; font-size: 12px; font-weight: 200;" fill="rgb(33, 33, 33)" stroke="none" stroke-width="1px">6</text><text x="0" y="81.6923076923077" dx="0em" dy="0.3em" style="text-anchor: end; visibility: inherit; font-family: Roboto, sans-serif; font-size: 12px; font-weight: 200;" fill="rgb(33, 33, 33)" stroke="none" stroke-width="1px">6.5</text><text x="0" y="68.07692307692307" dx="0em" dy="0.3em" style="text-anchor: end; visibility: hidden; font-family: Roboto, sans-serif; font-size: 12px; font-weight: 200;" fill="rgb(33, 33, 33)" stroke="none" stroke-width="1px">7</text><text x="0" y="54.46153846153847" dx="0em" dy="0.3em" style="text-anchor: end; visibility: inherit; font-family: Roboto, sans-serif; font-size: 12px; font-weight: 200;" fill="rgb(33, 33, 33)" stroke="none" stroke-width="1px">7.5</text><text x="0" y="40.84615384615384" dx="0em" dy="0.3em" style="text-anchor: end; visibility: hidden; font-family: Roboto, sans-serif; font-size: 12px; font-weight: 200;" fill="rgb(33, 33, 33)" stroke="none" stroke-width="1px">8</text><text x="0" y="27.230769230769234" dx="0em" dy="0.3em" style="text-anchor: end; visibility: inherit; font-family: Roboto, sans-serif; font-size: 12px; font-weight: 200;" fill="rgb(33, 33, 33)" stroke="none" stroke-width="1px">8.5</text><text x="0" y="13.615384615384606" dx="0em" dy="0.3em" style="text-anchor: end; visibility: hidden; font-family: Roboto, sans-serif; font-size: 12px; font-weight: 200;" fill="rgb(33, 33, 33)" stroke="none" stroke-width="1px">9</text><text x="0" y="0" dx="0em" dy="0.3em" style="text-anchor: end; visibility: hidden; font-family: Roboto, sans-serif; font-size: 12px; font-weight: 200;" fill="rgb(33, 33, 33)" stroke="none" stroke-width="1px">9.5</text></g><line x1="40" y1="0" x2="40" y2="177" fill="rgb(0, 0, 0)" stroke="rgb(204, 204, 204)" stroke-width="1px"></line></g></g><g transform="translate(40, 0)" clip-path="url(#clip_0)"><clipPath id="clip_0"><rect width="290" height="177"></rect></clipPath><g><g><g><line x1="0" y1="0" x2="0" y2="177" fill="rgb(0, 0, 0)" stroke="rgb(66, 66, 66)" stroke-width="1px" opacity="0.25"></line><line x1="22.30769230769231" y1="0" x2="22.30769230769231" y2="177" fill="rgb(0, 0, 0)" stroke="rgb(66, 66, 66)" stroke-width="1px" opacity="0.25"></line><line x1="44.61538461538462" y1="0" x2="44.61538461538462" y2="177" fill="rgb(0, 0, 0)" stroke="rgb(66, 66, 66)" stroke-width="1px" opacity="0.25"></line><line x1="66.92307692307692" y1="0" x2="66.92307692307692" y2="177" fill="rgb(0, 0, 0)" stroke="rgb(66, 66, 66)" stroke-width="1px" opacity="0.25"></line><line x1="89.23076923076924" y1="0" x2="89.23076923076924" y2="177" fill="rgb(0, 0, 0)" stroke="rgb(66, 66, 66)" stroke-width="1px" opacity="0.25"></line><line x1="111.53846153846155" y1="0" x2="111.53846153846155" y2="177" fill="rgb(0, 0, 0)" stroke="rgb(66, 66, 66)" stroke-width="1px" opacity="0.25"></line><line x1="133.84615384615384" y1="0" x2="133.84615384615384" y2="177" fill="rgb(0, 0, 0)" stroke="rgb(66, 66, 66)" stroke-width="1px" opacity="0.25"></line><line x1="156.15384615384616" y1="0" x2="156.15384615384616" y2="177" fill="rgb(0, 0, 0)" stroke="rgb(66, 66, 66)" stroke-width="1px" opacity="0.25"></line><line x1="178.46153846153848" y1="0" x2="178.46153846153848" y2="177" fill="rgb(0, 0, 0)" stroke="rgb(66, 66, 66)" stroke-width="1px" opacity="0.25"></line><line x1="200.76923076923077" y1="0" x2="200.76923076923077" y2="177" fill="rgb(0, 0, 0)" stroke="rgb(66, 66, 66)" stroke-width="1px" opacity="0.25"></line><line x1="223.0769230769231" y1="0" x2="223.0769230769231" y2="177" fill="rgb(0, 0, 0)" stroke="rgb(66, 66, 66)" stroke-width="1px" opacity="0.25"></line><line x1="245.3846153846154" y1="0" x2="245.3846153846154" y2="177" fill="rgb(0, 0, 0)" stroke="rgb(66, 66, 66)" stroke-width="1px" opacity="0.25"></line><line x1="267.6923076923077" y1="0" x2="267.6923076923077" y2="177" fill="rgb(0, 0, 0)" stroke="rgb(66, 66, 66)" stroke-width="1px" opacity="0.25"></line><line x1="290" y1="0" x2="290" y2="177" fill="rgb(0, 0, 0)" stroke="rgb(66, 66, 66)" stroke-width="1px" opacity="0.25"></line></g><g><line x1="0" y1="177" x2="290" y2="177" fill="rgb(0, 0, 0)" stroke="rgb(66, 66, 66)" stroke-width="1px" opacity="0.25"></line><line x1="0" y1="163.3846153846154" x2="290" y2="163.3846153846154" fill="rgb(0, 0, 0)" stroke="rgb(66, 66, 66)" stroke-width="1px" opacity="0.25"></line><line x1="0" y1="149.76923076923077" x2="290" y2="149.76923076923077" fill="rgb(0, 0, 0)" stroke="rgb(66, 66, 66)" stroke-width="1px" opacity="0.25"></line><line x1="0" y1="136.15384615384613" x2="290" y2="136.15384615384613" fill="rgb(0, 0, 0)" stroke="rgb(66, 66, 66)" stroke-width="1px" opacity="0.25"></line><line x1="0" y1="122.53846153846153" x2="290" y2="122.53846153846153" fill="rgb(0, 0, 0)" stroke="rgb(66, 66, 66)" stroke-width="1px" opacity="0.25"></line><line x1="0" y1="108.92307692307693" x2="290" y2="108.92307692307693" fill="rgb(0, 0, 0)" stroke="rgb(66, 66, 66)" stroke-width="1px" opacity="0.25"></line><line x1="0" y1="95.3076923076923" x2="290" y2="95.3076923076923" fill="rgb(0, 0, 0)" stroke="rgb(66, 66, 66)" stroke-width="1px" opacity="0.25"></line><line x1="0" y1="81.6923076923077" x2="290" y2="81.6923076923077" fill="rgb(0, 0, 0)" stroke="rgb(66, 66, 66)" stroke-width="1px" opacity="0.25"></line><line x1="0" y1="68.07692307692307" x2="290" y2="68.07692307692307" fill="rgb(0, 0, 0)" stroke="rgb(66, 66, 66)" stroke-width="1px" opacity="0.25"></line><line x1="0" y1="54.46153846153847" x2="290" y2="54.46153846153847" fill="rgb(0, 0, 0)" stroke="rgb(66, 66, 66)" stroke-width="1px" opacity="0.25"></line><line x1="0" y1="40.84615384615384" x2="290" y2="40.84615384615384" fill="rgb(0, 0, 0)" stroke="rgb(66, 66, 66)" stroke-width="1px" opacity="0.25"></line><line x1="0" y1="27.230769230769234" x2="290" y2="27.230769230769234" fill="rgb(0, 0, 0)" stroke="rgb(66, 66, 66)" stroke-width="1px" opacity="0.25"></line><line x1="0" y1="13.615384615384606" x2="290" y2="13.615384615384606" fill="rgb(0, 0, 0)" stroke="rgb(66, 66, 66)" stroke-width="1px" opacity="0.25"></line><line x1="0" y1="0" x2="290" y2="0" fill="rgb(0, 0, 0)" stroke="rgb(66, 66, 66)" stroke-width="1px" opacity="0.25"></line></g></g></g><g><g><line x1="0" y1="258.69230769230774" x2="290" y2="258.69230769230774" fill="rgb(0, 0, 0)" stroke="rgb(153, 153, 153)" stroke-width="1.5px"></line></g></g><g><g><line x1="22.30769230769231" y1="0" x2="22.30769230769231" y2="177" fill="rgb(0, 0, 0)" stroke="rgb(153, 153, 153)" stroke-width="1.5px"></line></g></g><g><g><g><g><g><path stroke="rgb(0, 119, 187)" stroke-width="2px" d="M22.30769230769231,-21.56479057898888L23.423076923076923,11.372562087691682L24.53846153846154,45.7798364897161L25.653846153846157,52.29139078324482L26.76923076923077,49.01451534944537L27.884615384615387,60.20565800791475L29,62.70837812000744L30.115384615384617,78.1372112279042L31.230769230769234,83.39804604280822L32.34615384615385,78.66217690202554L33.46153846153846,74.31726345884545L34.57692307692308,79.59761347288865L35.69230769230769,83.66665329424463L36.80769230769231,88.67716486861579L37.92307692307693,59.768152736767185L39.03846153846154,51.03420842723974L40.15384615384615,55.648908839420265L41.26923076923077,56.67555174133462L42.38461538461539,56.147215912607514L43.5,63.96091257378797L44.61538461538462,59.72375186522985L45.730769230769226,59.492687674544115L46.84615384615385,55.873648091398756L47.96153846153846,61.14332157462153L49.07692307692308,55.15732989408635L50.19230769230769,56.68664795849611L51.307692307692314,53.38801954586006L52.42307692307692,53.038089442545996L53.53846153846154,55.5779171638453L54.65384615384615,61.395523582459994L55.769230769230774,60.741783480284184L56.88461538461539,63.53534366907596L58,65.59749704846604L59.11538461538461,65.78801199898732L60.23076923076923,64.9161063071412L61.34615384615385,63.32361164773398L62.46153846153847,61.43138540637752L63.57692307692307,64.33380336892085L64.6923076923077,65.85153904602298L65.8076923076923,67.21262407948554L66.92307692307692,65.18957988622174L68.03846153846153,65.3289176001413L69.15384615384616,64.40914347666781L70.26923076923077,62.56784644215454L71.38461538461539,64.23037902339055L72.5,66.80251368382424L73.61538461538461,60.50288171147831L74.73076923076923,58.6731924410334L75.84615384615385,59.88478259106762L76.96153846153847,61.78050488448307L78.07692307692308,62.222894341143544L79.19230769230768,62.36046540949514L80.3076923076923,63.33426487644599L81.42307692307692,62.50497780258106L82.53846153846153,65.09894707350557L83.65384615384615,65.52784968089834L84.76923076923077,67.20957858812783L85.88461538461539,67.71166733365332L87,68.28006784770618L88.11538461538461,69.00833239900567L89.23076923076924,69.23433825932987L90.34615384615385,69.04495259776019L91.46153846153845,70.05010689021694L92.57692307692307,70.79432811202003L93.6923076923077,71.27554195107876L94.8076923076923,64.24694877361739L95.92307692307692,63.51579811241098L97.03846153846153,64.84557345249303L98.15384615384616,65.73489850537214L99.26923076923077,66.91035334977703L100.38461538461539,68.06870626779073L101.5,67.79638363951912L102.61538461538463,66.92278910045752L103.73076923076923,66.80698735424836L104.84615384615384,67.75455012282607L105.96153846153845,69.76287842773179L107.07692307692308,68.32478551696425L108.1923076923077,68.91418809911055L109.3076923076923,68.85225672479045L110.42307692307692,68.21569025095936L111.53846153846155,67.83172348710639L112.65384615384616,68.49350482754828L113.76923076923077,66.41561248380405L114.88461538461537,66.56725452555996L116,67.02742837059807L117.11538461538461,68.363702760739L118.23076923076923,69.09492181938374L119.34615384615384,70.58661447924136L120.46153846153847,72.7672228326938L121.57692307692308,73.27877264240236L122.6923076923077,69.14448149017382L123.8076923076923,70.45678598456033L124.92307692307693,71.52869172581002L126.03846153846155,72.78137588621311L127.15384615384615,72.05393364128408L128.26923076923077,70.8419945035534L129.3846153846154,71.9546961824883L130.5,72.92278926948876L131.6153846153846,72.94713539570203L132.73076923076923,73.43036588587367L133.84615384615384,73.33490381218385L134.96153846153845,73.00868912226298L136.07692307692307,74.11488946560739L137.19230769230768,74.85438871268697L138.30769230769232,73.46561340518612L139.42307692307693,73.90931457055865L140.53846153846155,75.09759319704769L141.65384615384616,75.86529726847249L142.76923076923077,76.34071909668214L143.8846153846154,76.64178268524216L145,77.496605769424L146.1153846153846,77.50191484760481L147.23076923076923,78.49763831428108L148.34615384615384,75.725516667114L149.46153846153845,76.51851467596673L150.5769230769231,77.03820607750262L151.6923076923077,77.4979777987012L152.80769230769232,77.22326425839364L153.92307692307693,77.45365188580317L155.03846153846155,78.21516245617654L156.15384615384616,78.91481128773653L157.26923076923075,79.50481794623853L158.38461538461536,79.68717331333826L159.5,79.82112438529006L160.6153846153846,78.59511505900814L161.73076923076923,78.98643471675094L162.84615384615384,76.56705409967336L163.96153846153845,77.22158589288573L165.07692307692307,77.53008250466452L166.19230769230768,78.40363312111869L167.3076923076923,78.146747863696L168.42307692307693,79.10199767739566L169.53846153846155,80.13529279804702L170.65384615384616,81.05838056676829L171.76923076923077,81.8391385291271L172.8846153846154,81.70659867933671L174,82.12032259280095L175.1153846153846,82.92833392262199L176.23076923076923,83.81134409055058L177.34615384615387,83.05858459955776L178.46153846153848,83.630793202656L179.5769230769231,82.8648434407568L180.6923076923077,83.12714688704902L181.8076923076923,83.90460461759085L182.9230769230769,84.1232285836533L184.03846153846152,83.92089841452423L185.15384615384613,82.3481056026862L186.26923076923077,82.59152481606182L187.3846153846154,83.12616284398248L188.5,83.73265511280285L189.6153846153846,84.57409156222137L190.73076923076923,85.00457103467417L191.84615384615384,85.02957691935048L192.96153846153845,85.62319562364173L194.07692307692307,86.51191912358446L195.1923076923077,87.12353383893513L196.30769230769232,87.46171641294319L197.42307692307693,88.62383097966111L198.53846153846155,88.90760095106315L199.65384615384616,89.09824415185724L200.76923076923077,88.64407354661394L201.8846153846154,88.73851588397125L203,88.46449343986383L204.11538461538464,87.31229687323008L205.23076923076925,88.01718128954087L206.34615384615384,87.88631948313643L207.46153846153845,88.54276691154855L208.57692307692307,88.23668979713375L209.69230769230768,88.57542499950425L210.8076923076923,89.18033200089928L211.9230769230769,89.86057094710144L213.03846153846155,87.49813179782825L214.15384615384616,87.87042555725404L215.26923076923077,87.63598830370823L216.3846153846154,88.59706851657556L217.5,89.43805856929653L218.6153846153846,89.319410921338L219.73076923076923,89.99238384882419L220.84615384615384,90.83758655414L221.96153846153845,91.4617012740943L223.0769230769231,92.04377967833823L224.1923076923077,92.63744506343203L225.30769230769232,91.66080809683743L226.42307692307693,92.00564347818163L227.53846153846155,91.72853148398589L228.65384615384616,92.24115356433059L229.76923076923075,91.82129635892693L230.88461538461536,92.63671797687884L232,92.96700978248552L233.1153846153846,93.50769193139091L234.23076923076923,93.28002267987893L235.34615384615384,93.87359981776767L236.46153846153845,94.56846264951747L237.57692307692307,94.19521128489859L238.69230769230768,94.00962491537007L239.8076923076923,94.06589872502559L240.92307692307693,94.38939615933853L242.03846153846155,94.62309049667948L243.15384615384616,92.7488974498166L244.26923076923077,93.17477536028672L245.3846153846154,92.82177588706563L246.5,92.91935224731036L247.6153846153846,93.29277719051173L248.73076923076923,93.46714297508419L249.84615384615387,94.09457833621208L250.96153846153848,94.24061393254523L252.0769230769231,94.71598189420081L253.1923076923077,94.78337176091662L254.3076923076923,95.24655771806087L255.4230769230769,95.46962065596458L256.53846153846155,95.77421036964134L257.65384615384613,96.33277553372442L258.7692307692308,95.39486345057365L259.8846153846154,95.47155827436293L261,95.58317741985772L262.11538461538464,94.43790089658755L263.2307692307692,94.9909936146811L264.34615384615387,95.34318525066719L265.46153846153845,95.80603268507781L266.57692307692304,95.49528914793277L267.6923076923077,95.92617119422381L268.8076923076923,96.44514221625053L269.9230769230769,96.85134471305109L271.03846153846155,97.26058988474702L272.15384615384613,97.62780508524436" style="fill: none;" fill="none"></path></g><g><path stroke="rgb(255, 112, 67)" stroke-width="2px" d="M22.30769230769231,115.22799088404729L23.423076923076923,-79.01165007333312L33.46153846153846,-2.6960398062535735L34.57692307692308,11.365081193135486L35.69230769230769,-1.91655496431262L42.38461538461539,-5.646390458266973L43.5,0.8553870032766079L44.61538461538462,-1.401815999730478L45.730769230769226,3.4954941479288033L46.84615384615385,11.190678158101385L47.96153846153846,13.244722091802123L49.07692307692308,17.305681470213955L50.19230769230769,8.921502340647178L51.307692307692314,8.906862622285953L52.42307692307692,13.266649401153277L53.53846153846154,11.248973511355848L54.65384615384615,13.186779497424185L55.769230769230774,17.50325181785929L56.88461538461539,21.45521988826726L58,19.231514710196713L59.11538461538461,19.923911641998483L60.23076923076923,20.946601202457146L61.34615384615385,12.003970317204828L62.46153846153847,12.517860499204895L63.57692307692307,13.975735793446212L64.6923076923077,16.01377543700289L65.8076923076923,18.023435377617748L66.92307692307692,18.68315822867554L68.03846153846153,13.250868487450072L69.15384615384616,7.52086547272128L70.26923076923077,10.673404631551797L71.38461538461539,14.164217630242375L72.5,14.333952947514556L73.61538461538461,14.720550799418907L74.73076923076923,16.476178217946003L75.84615384615385,16.61283556523211L76.96153846153847,18.112564754404914L78.07692307692308,20.946790605323987L79.19230769230768,22.471717386360098L80.3076923076923,19.50466316562327L81.42307692307692,21.77023781943791L82.53846153846153,23.180322074722508L83.65384615384615,24.537190092457486L84.76923076923077,24.795027917724482L85.88461538461539,22.374869360856398L87,23.165374680607634L88.11538461538461,17.700272015185597L89.23076923076924,15.756199954303215L90.34615384615385,18.23539785249285L91.46153846153845,19.392817440094156L92.57692307692307,19.865141782021357L93.6923076923077,20.792812524033934L94.8076923076923,22.086238543073055L95.92307692307692,23.34303917073524L97.03846153846153,22.57097395673777L98.15384615384616,24.084890547519393L99.26923076923077,22.55123925125147L100.38461538461539,20.237257328563846L101.5,22.26167657336241L102.61538461538463,23.093291331571756L103.73076923076923,24.516659293910443L104.84615384615384,25.344055294396178L105.96153846153845,26.806607115836446L107.07692307692308,28.319384664266796L108.1923076923077,30.99934423930463L109.3076923076923,28.838705274979578L110.42307692307692,29.02697014549411L111.53846153846155,28.617041563647764L112.65384615384616,24.97689796124538L113.76923076923077,25.165090171282305L114.88461538461537,26.006785659224523L116,27.666829078374704L117.11538461538461,28.73939808572251L118.23076923076923,28.068468948335628L119.34615384615384,25.931748488054197L120.46153846153847,28.057091169022893L121.57692307692308,29.127054422356334L122.6923076923077,30.822010431786858L123.8076923076923,31.216865143272532L124.92307692307693,27.83333762326212L126.03846153846155,29.798504466537214L127.15384615384615,29.759243397419798L128.26923076923077,29.003064741141415L129.3846153846154,29.443188807214305L130.5,29.577793285625717L131.6153846153846,31.568234749394865L132.73076923076923,31.258456989543603L133.84615384615384,32.03921120706632L134.96153846153845,33.897305721017695L136.07692307692307,35.4604594476405L137.19230769230768,35.60920919297208L138.30769230769232,34.12491727437716L139.42307692307693,35.101549280980315L140.53846153846155,34.30648754921579L141.65384615384616,30.858268503798392" style="fill: none;" fill="none"></path></g><g><path stroke="rgb(187, 187, 187)" stroke-width="2px" d="M60.23076923076923,-2.8438139186251257L61.34615384615385,0.24686456490063702L62.46153846153847,2.607634094361117L63.57692307692307,7.108978129982292L64.6923076923077,9.159270772415871L65.8076923076923,12.692467656398776L66.92307692307692,16.750957254413844L68.03846153846153,19.579352514129017L69.15384615384616,19.553776593889058L70.26923076923077,18.674429264239038L71.38461538461539,20.973758654521095L72.5,13.990063080818285L73.61538461538461,17.810027750324732L74.73076923076923,16.839140771765102L75.84615384615385,19.229966092133782L76.96153846153847,21.66383806312833L78.07692307692308,24.251194224922003L79.19230769230768,25.80058730305146L80.3076923076923,25.973691456988714L81.42307692307692,27.392104955835062L82.53846153846153,24.847222870189803L83.65384615384615,25.075084038855433L84.76923076923077,16.197300000299034L85.88461538461539,16.078017995012974L87,15.071773768449894L88.11538461538461,14.901422271893566L89.23076923076924,12.423104404548576L90.34615384615385,9.142693534075862L91.46153846153845,11.551765415932364L92.57692307692307,13.249809840425272L93.6923076923077,14.909949256632475L94.8076923076923,16.2257807864585L95.92307692307692,17.54497289844012L97.03846153846153,17.318394052493755L98.15384615384616,18.995646008345922L99.26923076923077,20.800639635214996L100.38461538461539,21.725483206888892L101.5,21.885695418568666L102.61538461538463,20.511874768803715L103.73076923076923,20.619411568806054L104.84615384615384,23.269759680486505L105.96153846153845,22.666004962371677L107.07692307692308,25.549256843017776L108.1923076923077,28.051185130209035L109.3076923076923,28.904861712075974L110.42307692307692,24.717976065135282L111.53846153846155,22.32952357558951L112.65384615384616,13.179597177366288L113.76923076923077,14.939923918441947L114.88461538461537,16.944510352621652L116,18.1391513074028L117.11538461538461,19.58535032936897L118.23076923076923,20.457875040258795L119.34615384615384,21.98686803085076L120.46153846153847,24.146883248207974L121.57692307692308,26.654026251358445L122.6923076923077,24.949771024212517L123.8076923076923,25.672092829844086L124.92307692307693,27.33370505086085L126.03846153846155,28.838795161337863L127.15384615384615,24.000774437567856L128.26923076923077,25.458435572795352L129.3846153846154,19.895511703654613L130.5,22.396525008946874L131.6153846153846,19.288173252308287L132.73076923076923,20.29746414092938L133.84615384615384,22.44920616606929L134.96153846153845,22.95565192416939L136.07692307692307,22.98361883296908L137.19230769230768,25.00328675298567L138.30769230769232,26.09576781974331L139.42307692307693,25.48014599205817L140.53846153846155,25.28613015991912L141.65384615384616,26.785961113379873L142.76923076923077,28.0412097248639L143.8846153846154,25.469905728038157L145,27.15785805843312L146.1153846153846,28.33431439200459L147.23076923076923,29.604404969757802L148.34615384615384,30.184201776573886L149.46153846153845,30.768410618780866L150.5769230769231,32.18791315062041L151.6923076923077,32.73372004992515L152.80769230769232,25.72852486713896L153.92307692307693,27.075306041846584L155.03846153846155,27.859671948747497L156.15384615384616,29.083028263295052L157.26923076923075,30.48149974790834L158.38461538461536,31.182183986272467L159.5,31.61147581839268L160.6153846153846,33.18953217074153L161.73076923076923,34.92452906175449L162.84615384615384,35.679357927608116L163.96153846153845,35.50544759396178L165.07692307692307,36.8282006111669L166.19230769230768,36.4549843416597L167.3076923076923,36.84992800293834L168.42307692307693,37.03922909392512L169.53846153846155,37.71720745872936L170.65384615384616,38.66526511599688L171.76923076923077,38.89938862816686L172.8846153846154,38.52802340562481L174,39.60052884452445L175.1153846153846,39.84490769283342L176.23076923076923,40.47428906108416L177.34615384615387,39.76672818061421L178.46153846153848,38.42845971915306L179.5769230769231,39.217330888159545L180.6923076923077,39.04401805984991L181.8076923076923,39.53778478683065L182.9230769230769,40.935500096764194L184.03846153846152,42.10163483767684L185.15384615384613,35.44851056105008L186.26923076923077,36.43244482664152L187.3846153846154,36.95607914005926L188.5,37.57253497362801L189.6153846153846,38.33041511151983L190.73076923076923,39.142570086991476L191.84615384615384,40.65854316797554L192.96153846153845,41.466435495702854L194.07692307692307,42.040172385072026L195.1923076923077,42.447038517999545L196.30769230769232,43.91839474179795L197.42307692307693,44.87173806032882L198.53846153846155,44.528168347479024L199.65384615384616,45.016231008565555L200.76923076923077,45.537180392157445L201.8846153846154,46.561296974846144L203,46.21517777914591L204.11538461538464,44.76798391637847L205.23076923076925,45.65346723817702L206.34615384615384,46.347574225279836L207.46153846153845,46.838026394330065L208.57692307692307,47.31350037144015L209.69230769230768,47.3138631058968L210.8076923076923,47.48572072688001L211.9230769230769,44.469901573730404L213.03846153846155,43.20986323457716L214.15384615384616,43.88464163336728L215.26923076923077,43.98087166154373L216.3846153846154,44.47253497669818L217.5,45.51462905792043L218.6153846153846,45.45853167318516L219.73076923076923,45.90355328024864L220.84615384615384,46.05612907761083L221.96153846153845,46.86928511141315L223.0769230769231,45.74260679081938L224.1923076923077,45.92575079755925L225.30769230769232,46.79391037205271L226.42307692307693,46.33587506228256L227.53846153846155,47.55522223173975L228.65384615384616,47.43121211448195L229.76923076923075,47.45140437440895L230.88461538461536,48.794969806853736L232,49.87909876435394L233.1153846153846,50.00775789470835L234.23076923076923,50.5751399915986L235.34615384615384,49.803784595009404L236.46153846153845,49.78395552948682L237.57692307692307,50.36700815188058L238.69230769230768,50.88288429290351L239.8076923076923,51.29453097466938L240.92307692307693,50.5705274639055L242.03846153846155,51.10636541716457L243.15384615384616,51.88287740229288L244.26923076923077,52.91645049773233L245.3846153846154,53.835027317846425L246.5,53.81489325563323L247.6153846153846,54.23352660335963L248.73076923076923,55.01856214897272L249.84615384615387,55.47418806301694L250.96153846153848,52.03863701135643L252.0769230769231,53.01495907081657L253.1923076923077,53.63352196125105L254.3076923076923,54.050586911155456L255.4230769230769,54.732405337024744L256.53846153846155,55.52640771450093L257.65384615384613,56.46204095634496L258.7692307692308,55.6204136754194L259.8846153846154,55.71800468814642L261,55.145566496688694L262.11538461538464,55.65969514260006L263.2307692307692,56.523549405701544L264.34615384615387,56.82616666595471L265.46153846153845,57.688902916626255L266.57692307692304,58.513710432702155L267.6923076923077,58.569832320448256L268.8076923076923,59.16794948958658L269.9230769230769,56.73454841689203L271.03846153846155,57.06466070339646L272.15384615384613,57.579521500329285L273.2692307692308,57.15516450311881L274.38461538461536,56.64675350283578L275.5,56.744158418516164L276.61538461538464,57.05152165193495L277.7307692307692,57.63880599512038L278.84615384615387,56.660959132854344L279.96153846153845,56.33925840182852L281.0769230769231,56.94239786868497L282.1923076923077,57.09039041311284L283.3076923076923,57.905094273743025L284.4230769230769,58.654802310753084L285.53846153846155,59.2125619628143L286.6538461538462,59.65225574687928L287.7692307692308,60.416039080057004L288.8846153846154,60.322932131120815L290,61.137489015930726L291.1153846153846,61.04309546369133" style="fill: none;" fill="none"></path></g></g></g></g><g opacity="0.2"><g><g><g><path stroke="rgb(0, 119, 187)" stroke-width="2px" d="M22.30769230769231,-21.56479057898888L23.423076923076923,44.24404004903939L24.53846153846154,114.3880792764517L25.653846153846157,71.74801914508527L26.76923076923077,35.97242017892692L27.884615384615387,115.8265309700599L29,77.61993422875038L30.115384615384617,185.27847576141357L31.230769230769234,125.10770680354192L32.34615384615385,36.463317577655495L33.46153846153846,31.343213301438556L34.57692307692308,136.9890832901001L35.69230769230769,131.86499272860016L36.80769230769231,152.90915756959183L37.92307692307693,-338.9394246614896L39.03846153846154,-77.89824705857498L40.15384615384615,128.24138149848352L41.26923076923077,73.81765431624191L42.38461538461539,46.815830304072456L43.5,209.4872739315033L44.61538461538462,-23.26219500028169L45.730769230769226,54.74568139589749L46.84615384615385,-21.939371549166175L49.07692307692308,-84.96934582636908L50.19230769230769,93.9412664266733L51.307692307692314,-30.098817091721738L52.42307692307692,43.849995099581214L53.53846153846154,124.66739757244403L54.65384615384615,225.13800776921784L55.769230769230774,41.72596726050743L56.88461538461539,147.41912731757532L58,129.45310834737924L59.11538461538461,71.86573791503906L60.23076923076923,36.2864148066594L61.34615384615385,9.548101131732642L62.46153846153847,-4.226137601412269L63.57692307692307,167.73871663900522L64.6923076923077,121.33070799020621L65.8076923076923,118.22445686046893L66.92307692307692,-12.499042951143714L68.03846153846153,70.80809982006366L69.15384615384616,27.39523271413949L70.26923076923077,-13.219768524169922L71.38461538461539,134.1824138347919L72.5,177.37713245245126L74.73076923076923,-23.318210748525768L75.84615384615385,115.27872188274677L76.96153846153847,150.1715729053204L78.07692307692308,83.25025705190805L79.19230769230768,69.02362038539006L80.3076923076923,111.37705751565787L81.42307692307692,20.845960763784557L82.53846153846153,197.73447462228629L83.65384615384615,87.84279529864972L84.76923076923077,156.20994461499728L85.88461538461539,94.73112223698543L87,99.37411880493164L88.11538461538461,109.49479073744553L89.23076923076924,81.99912181267372L90.34615384615385,58.1808594923753L91.46153846153845,128.59852409362793L92.57692307692307,114.79990020165077L93.6923076923077,100.1529116997352L94.8076923076923,-363.7059164780837L95.92307692307692,18.35727222149189L97.03846153846153,148.1401904913095L98.15384615384616,122.21667612515962L99.26923076923077,142.58826894026535L100.38461538461539,143.65245129511905L101.5,49.79080669696514L102.61538461538463,8.405660335834204L103.73076923076923,58.95003076700065L104.84615384615384,132.86220029684213L105.96153846153845,209.4847386800326L107.07692307692308,-32.96021681565505L108.1923076923077,110.93106101109431L109.3076923076923,64.38436339451717L110.42307692307692,21.748653118426976L111.53846153846155,39.47640389662522L112.65384615384616,117.92769285348746L113.76923076923077,-90.56349343519943L114.88461538461537,78.15182414421669L116,102.57097677084116L117.11538461538461,172.70390114417444L118.23076923076923,126.80620193481445L119.34615384615384,189.57132845658523L120.46153846153847,248.53160248352933L121.57692307692308,114.93947212512677L122.6923076923077,-271.0054884690505L123.8076923076923,179.5207476249108L124.92307692307693,161.50501045813928L126.03846153846155,178.97220490528986L127.15384615384615,9.785538306603057L128.26923076923077,-33.9009282038762L129.3846153846154,169.03907665839563L130.5,158.1871421153729L131.6153846153846,75.11141813718356L132.73076923076923,116.7841613476093L133.84615384615384,64.69222927093506L134.96153846153845,43.20829406151405L136.07692307692307,176.07048786603488L137.19230769230768,143.61380899869476L138.30769230769232,-56.791918241060706L139.42307692307693,115.88500081575835L140.53846153846155,188.47398981681238L141.65384615384616,149.73338017096887L142.76923076923077,122.46853923797607L143.8846153846154,106.09452834496132L145,161.8089419878446L146.1153846153846,78.0298074575571L147.23076923076923,178.30019771135773L148.34615384615384,-204.33843788733853L149.46153846153845,157.2652844282297L150.5769230769231,130.36843475928674L151.6923076923077,125.04379639258751L152.80769230769232,48.59729730165921L153.92307692307693,101.64263974703276L155.03846153846155,158.76819188778217L156.15384615384616,153.4743011547969L157.26923076923075,142.84314449016864L158.38461538461536,99.406203856835L159.5,94.41066125723032L160.6153846153846,-55.89452362060547L161.73076923076923,122.21774086585411L162.84615384615384,-192.59564649141754L163.96153846153845,150.54762114011322L165.07692307692307,112.3291694200956L166.19230769230768,177.61676403192374L167.3076923076923,48.77309637803298L168.42307692307693,189.065316933852L170.65384615384616,188.73539664195135L171.76923076923077,173.51061102060171L172.8846153846154,66.04348908937894L174,131.32792194073016L175.1153846153846,179.64597801061777L177.34615384615387,-8.186453599196229L178.46153846153848,153.42286898539615L179.5769230769231,-11.135343845073999L180.6923076923077,115.51539296370285L181.8076923076923,180.4860778955313L182.9230769230769,111.44616178365854L184.03846153846152,58.48296018747184L185.15384615384613,-116.56526624239409L186.26923076923077,113.55846449045035L187.3846153846154,151.53847921811615L188.5,161.78951047017026L189.6153846153846,193.4919309249291L190.73076923076923,141.04518699645996L191.84615384615384,88.30333460294284L192.96153846153845,163.77645294482892L194.07692307692307,204.17032571939322L195.1923076923077,168.54386186599731L196.30769230769232,132.72925054110016L197.42307692307693,245.02771939681125L198.53846153846155,127.30577307481033L199.65384615384616,115.03368869194618L200.76923076923077,26.52819618811974L201.8846153846154,101.72359899374155L203,50.590426958524255L204.11538461538464,-72.77017021179199L205.23076923076925,186.4591498374939L206.34615384615384,69.51651741908147L207.46153846153845,181.16279202241165L208.57692307692307,44.832309282743005L209.69230769230768,136.8529912508451L210.8076923076923,175.82477947381827L211.9230769230769,187.77927248294537L213.03846153846155,-254.2466776921199L214.15384615384616,141.98939125354474L215.26923076923077,53.390902739304764L216.3846153846154,229.66386338380667L217.5,213.4705175619859L218.6153846153846,71.73738472278302L219.73076923076923,190.19032584703888L225.30769230769232,-57.15489094073958L226.42307692307693,144.78921780219446L227.53846153846155,49.11957858158992L228.65384615384616,171.4162725668687L229.76923076923075,26.684505315927357L230.88461538461536,219.7022890311021L232,144.66243575169491L233.1153846153846,178.5025893358084L234.23076923076923,57.33492301060603L235.34615384615384,187.9942851800185L236.46153846153845,205.22264660321747L237.57692307692307,34.502766389113205L238.69230769230768,64.2037600003756L239.8076923076923,103.14176867558406L240.92307692307693,146.78173718085657L242.03846153846155,132.62881433046783L243.15384615384616,-213.312072460468L244.26923076923077,163.00776210198035L245.3846153846154,34.70244422325722L246.5,109.04998882000262L247.6153846153846,155.27397262133084L248.73076923076923,122.52456797086275L249.84615384615387,199.07146431849554L250.96153846153848,118.77086360637958L252.0769230769231,174.88037395477295L253.1923076923077,106.1922897192148L254.3076923076923,173.96808594923752L255.4230769230769,133.52744249197153L256.53846153846155,147.94174619821402L257.65384615384613,192.36518206963171L258.7692307692308,-66.4710344167856L259.8846153846154,108.75770451472356L261,114.99212485093338L262.11538461538464,-105.45373623187727L263.2307692307692,191.88433478428766L264.34615384615387,157.2698355454665L265.46153846153845,177.48869650180524L266.57692307692304,40.455264164851265L267.6923076923077,172.52294716468225L268.8076923076923,189.03468616192157L269.9230769230769,169.58232164382935L271.03846153846155,170.79823603996863L272.15384615384613,163.8475568477924" style="fill: none;" fill="none"></path></g><g><path stroke="rgb(255, 112, 67)" stroke-width="2px" d="M22.30769230769231,115.22799088404729L23.423076923076923,-272.8628117487981L24.53846153846154,53.86667302938607L25.653846153846157,-165.86823991628793L26.76923076923077,132.86983526670014L27.884615384615387,-37.32513427734375L29,70.48795047173134L30.115384615384617,76.96891021728516L31.230769230769234,-26.190335787259606L32.34615384615385,-123.99406594496506L33.46153846153846,145.30186447730432L34.57692307692308,164.1936624967135L35.69230769230769,-159.23937210669885L36.80769230769231,-34.185915140005264L37.92307692307693,24.8297010568472L39.03846153846154,-143.35440180851862L40.15384615384615,0.3333417452298708L41.26923076923077,139.2732507265531L42.38461538461539,-68.66455606313852L43.5,121.94788103837234L44.61538461538462,-45.609751774714525L45.730769230769226,104.10633285229022L46.84615384615385,176.6449349476741L47.96153846153846,59.37035663311298L49.07692307692308,112.3690842114962L50.19230769230769,-195.319460942195L51.307692307692314,8.536337779118464L52.42307692307692,127.74131694206825L53.53846153846154,-43.63670935997597L54.65384615384615,67.72831139197716L55.769230769230774,143.05963743649994L56.88461538461539,140.12316050896277L58,-49.62662887573242L59.11538461538461,42.01246041517991L60.23076923076923,54.52739656888522L61.34615384615385,-289.97163655207703L62.46153846153847,30.349109062781707L63.57692307692307,65.91569423675537L64.6923076923077,90.51208723508394L65.8076923076923,93.3430769260113L66.92307692307692,44.017730712890625L68.03846153846153,-200.36326745840222L69.15384615384616,-223.0681615976187L70.26923076923077,140.431623678941L71.38461538461539,161.04222481067364L72.5,21.6307785327618L73.61538461538461,31.6927598806528L74.73076923076923,95.1487472974337L75.84615384615385,22.860813727745636L76.96153846153847,88.03982426570012L78.07692307692308,155.66133697216327L79.19230769230768,96.33044066795937L80.3076923076923,-126.87616318922775L81.42307692307692,135.5807819366455L82.53846153846153,95.2811257289006L83.65384615384615,95.13232172452486L84.76923076923077,38.440307323749245L85.88461538461539,-107.86378977848932L87,66.40955213400034L88.11538461538461,-286.12153420081506L89.23076923076924,-94.04475402832031L90.34615384615385,160.45438407017636L91.46153846153845,86.81041233356183L92.57692307692307,47.79353493910569L93.6923076923077,76.46180798457219L94.8076923076923,100.83960452446571L95.92307692307692,100.96762011601375L97.03846153846153,-25.78973359328049L98.15384615384616,120.23499892308162L99.26923076923077,-76.18801381037787L100.38461538461539,-130.75249451857346L101.5,156.11333887393658L102.61538461538463,78.79843337719257L103.73076923076923,121.08981690040001L104.84615384615384,82.1949691772461L105.96153846153845,128.55812887045053L107.07692307692308,134.86443218818079L108.1923076923077,222.0462182851938L109.3076923076923,-127.03551072340744L110.42307692307692,42.76962089538574L111.53846153846155,-1.6555159642146244L112.65384615384616,-246.93699910090518L113.76923076923077,39.38249896122859L114.88461538461537,90.30742329817551L116,155.88757489277768L117.11538461538461,112.4887117239145L118.23076923076923,-24.884444310114915L120.46153846153847,199.36687143032367L121.57692307692308,116.2650353358342L122.6923076923077,170.27499389648438L123.8076923076923,64.0327392724844L124.92307692307693,-256.1817010732797L126.03846153846155,196.3869413962731L127.15384615384615,26.398531546959504L128.26923076923077,-36.35035118689903L129.3846153846154,67.84447200481708L130.5,41.43302073845497L131.6153846153846,208.51129625393793L132.73076923076923,3.466250346257135L133.84615384615384,102.72492269369272L134.96153846153845,203.63813066482544L136.07692307692307,179.5322585105896L137.19230769230768,49.440117469200715L138.30769230769232,-105.09141276432916L139.42307692307693,127.49436202416054L140.53846153846155,-41.5521808037391" style="fill: none;" fill="none"></path></g><g><path stroke="rgb(187, 187, 187)" stroke-width="2px" d="M23.423076923076923,-386.0683796222394L24.53846153846154,9.046140817495496L25.653846153846157,-171.17898471538837L26.76923076923077,74.34906379993146L27.884615384615387,-88.1078637930063L29,165.96544295090897L30.115384615384617,25.267127697284398L31.230769230769234,60.28202137580284L32.34615384615385,-224.33556659405048L33.46153846153846,-102.73664782597467L34.57692307692308,22.875772036038903L35.69230769230769,26.65918526282677L36.80769230769231,21.076671893780055L37.92307692307693,94.10566498683049L39.03846153846154,48.62881102928749L40.15384615384615,31.645210119394154L41.26923076923077,-41.56958022484413L42.38461538461539,156.15694779616135L43.5,-21.31875757070687L44.61538461538462,94.07335919600266L45.730769230769226,-679.1163377028245L46.84615384615385,62.669325828552246L47.96153846153846,54.92403844686654L49.07692307692308,-16.46579933166504L50.19230769230769,98.01465269235464L51.307692307692314,166.2447036596445L52.42307692307692,105.42905242626483L53.53846153846154,169.22777597720807L54.65384615384615,122.31468420762283L55.769230769230774,130.32393638904279L56.88461538461539,100.1006744824923L58,140.84466516054596L59.11538461538461,190.35715902768646L60.23076923076923,48.47709846496582L61.34615384615385,104.6131883767935L62.46153846153847,84.5229338132418L63.57692307692307,167.4790887099046L64.6923076923077,84.10547755314754L65.8076923076923,145.11244451082672L66.92307692307692,172.60443228941696L68.03846153846153,130.8004468037532L69.15384615384616,18.52454038766715L70.26923076923077,-17.519425172072207L71.38461538461539,117.71939321664664L72.5,-286.23507191584656L74.73076923076923,-26.667910942664502L75.84615384615385,128.5385739986713L76.96153846153847,135.14699099614072L78.07692307692308,147.23169400141788L79.19230769230768,100.8443179497352L80.3076923076923,34.513855273907005L81.42307692307692,98.64573229276216L82.53846153846153,-105.27836564870981L83.65384615384615,36.93024532611553L84.76923076923077,-453.6323054387019L85.88461538461539,9.658964010385363L87,-39.974287033081055L88.11538461538461,5.431060497577368L89.23076923076924,-127.55198786808893L90.34615384615385,-179.0378098121056L91.46153846153845,151.8758397102356L92.57692307692307,113.65465472294734L93.6923076923077,114.53397472088153L94.8076923076923,96.34336038736197L95.92307692307692,99.02307899181659L97.03846153846153,3.125922863300024L98.15384615384616,125.51931997445914L99.26923076923077,137.00940425579364L100.38461538461539,82.07249802809494L101.5,32.47869432889499L102.61538461538463,-71.51255563589243L103.73076923076923,27.915605251605687L104.84615384615384,205.3768911728492L108.1923076923077,206.4067031786992L109.3076923076923,90.4913507608267L110.42307692307692,-280.9094467163086L112.65384615384616,-670.3077639066256L113.76923076923077,147.92781367668738L114.88461538461537,170.08324967897855L116,110.4124933389517L117.11538461538461,132.50878429412842L118.23076923076923,89.32166818472055L119.34615384615384,143.94683911250186L120.46153846153847,198.25138675249542L122.6923076923077,-115.26830819936899L123.8076923076923,85.70334170414851L124.92307692307693,166.81028872269852L126.03846153846155,156.42623629936804L127.15384615384615,-390.1294045081505L128.26923076923077,151.4381014383756L129.3846153846154,-465.4753902141864L131.6153846153846,-257.033078120305L132.73076923076923,110.84760871300331L133.84615384615384,217.25752428861765L134.96153846153845,69.22053249065692L136.07692307692307,25.56125582181491L137.19230769230768,212.79414103581354L138.30769230769232,128.56294617286096L139.42307692307693,-32.75983781080979L140.53846153846155,6.774633407592773L141.65384615384616,171.09890842437744L142.76923076923077,149.8317518234253L143.8846153846154,-226.07815757164585L145,193.6428384414086L146.1153846153846,145.31179772890533L147.23076923076923,156.90710955399734L148.34615384615384,88.76034208444449L149.46153846153845,90.25528995807355L150.5769230769231,177.85588921033417L151.6923076923077,89.1765907727755L152.80769230769232,-704.233622624324L153.92307692307693,168.47731557259192L155.03846153846155,110.83035212296707L156.15384615384616,159.45246307666486L157.26923076923075,180.61004877090454L158.38461538461536,106.95080060225266L159.5,78.36861573732816L160.6153846153846,206.29770035010117L161.73076923076923,226.5994942188263L162.84615384615384,119.65613057063176L163.96153846153845,16.022581540621253L165.07692307692307,186.037609907297L166.19230769230768,-5.932890965388353L167.3076923076923,82.00992503532997L168.42307692307693,58.83057205493633L169.53846153846155,116.28303205049956L170.65384615384616,149.2549869830792L171.76923076923077,66.38863387474647L172.8846153846154,-5.358658130352319L174,167.1624517073998L175.1153846153846,69.0966590001033L176.23076923076923,116.28766756791336L177.34615384615387,-45.99960268460786L178.46153846153848,-124.7996591421274L179.5769230769231,136.03051801828238L180.6923076923077,17.64399983332707L181.8076923076923,100.87709118769719L182.9230769230769,215.61754769545334L185.15384615384613,-805.981697669396L186.26923076923077,161.6051155603849L187.3846153846154,103.9603595000047L188.5,116.9117224766658L189.6153846153846,136.43249658437875L190.73076923076923,144.87041077247034L191.84615384615384,239.12896667993988L192.96153846153845,147.83002633314865L194.07692307692307,117.99739441504845L195.1923076923077,96.61050642453706L196.30769230769232,240.86724188694586L197.42307692307693,173.17802238464355L198.53846153846155,-1.9617717449481822L199.65384615384616,111.41315482212947L200.76923076923077,116.78623889042781L201.8846153846154,187.36932134628296L204.11538461538464,-156.30045406634991L205.23076923076925,169.31731807268582L206.34615384615384,143.78324560018686L207.46153846153845,116.03731067364032L208.57692307692307,114.73982026026799L209.69230769230768,47.36556111849271L210.8076923076923,72.10191557957576L211.9230769230769,-389.6497518099271L213.03846153846155,-139.06427588829627L214.15384615384616,141.97467965346115L215.26923076923077,58.03753500718337L216.3846153846154,116.63859051924484L217.5,199.20668638669525L218.6153846153846,37.14563457782452L219.73076923076923,112.16216094677264L220.84615384615384,68.87975054520828L221.96153846153845,169.07652436769925L223.0769230769231,-124.36890660799467L224.1923076923077,73.7052202958327L225.30769230769232,179.08029556274414L227.53846153846155,235.0429788186L228.65384615384616,28.277694995586696L229.76923076923075,50.584038514357346L230.88461538461536,258.16016832968364L232,219.5608992576599L233.1153846153846,70.23289313683144L234.23076923076923,140.15511571444L235.34615384615384,-72.50634824312651L236.46153846153845,46.62625452188346L237.57692307692307,143.61204308729904L238.69230769230768,133.73452157240646L239.8076923076923,117.68512674478384L240.92307692307693,-66.68616397564226L242.03846153846155,138.24972328772913L243.15384615384616,178.68945782001202L245.3846153846154,205.07341410563544L246.5,50.48647190974309L247.6153846153846,123.71842795151932L248.73076923076923,185.84188589682947L249.84615384615387,131.7054504247812L250.96153846153848,-525.0461777907152L252.0769230769231,217.65849979107196L253.1923076923077,158.35450766636777L254.3076923076923,124.93354379213774L255.4230769230769,171.06066865187424L256.53846153846155,191.5163824741657L258.7692307692308,-89.62854722829965L259.8846153846154,72.62407999772293L261,-44.393116730910094L262.11538461538464,145.39349710024322L263.2307692307692,207.85753572904144L264.34615384615387,110.03604258023775L265.46153846153845,209.94338222650381L266.57692307692304,204.60661620360153L267.6923076923077,68.54647372319148L268.8076923076923,165.87794593664316L269.9230769230769,-378.96842897855316L271.03846153846155,116.38284499828632L272.15384615384613,150.42413718883807L273.2692307692308,-19.639401802649854L274.38461538461536,-35.6821874471811L275.5,74.49501118293175L276.61538461538464,113.25942817101112L277.7307692307692,165.40755778092606L278.84615384615387,-123.3944091796875L279.96153846153845,-3.099538069504943L281.0769230769231,168.76006915019107L282.1923076923077,84.61995506286621L283.3076923076923,209.96623195134674L284.4230769230769,199.05308455687302L285.53846153846155,164.0122930086576L286.6538461538462,142.5416930272029L287.7692307692308,204.87591769145087L288.8846153846154,42.655239178584175L290,216.20913125918463" style="fill: none;" fill="none"></path></g></g></g></g></g></g><g transform="translate(40, 177)" clip-path="url(#clip_1)"><clipPath id="clip_1"><rect width="290" height="23"></rect></clipPath><g><g><line x1="0" y1="0" x2="0" y2="5" style="visibility: inherit;" fill="rgb(0, 0, 0)" stroke="rgb(204, 204, 204)" stroke-width="1px"></line><line x1="22.30769230769231" y1="0" x2="22.30769230769231" y2="5" style="visibility: inherit;" fill="rgb(0, 0, 0)" stroke="rgb(204, 204, 204)" stroke-width="1px"></line><line x1="44.61538461538462" y1="0" x2="44.61538461538462" y2="5" style="visibility: inherit;" fill="rgb(0, 0, 0)" stroke="rgb(204, 204, 204)" stroke-width="1px"></line><line x1="66.92307692307692" y1="0" x2="66.92307692307692" y2="5" style="visibility: inherit;" fill="rgb(0, 0, 0)" stroke="rgb(204, 204, 204)" stroke-width="1px"></line><line x1="89.23076923076924" y1="0" x2="89.23076923076924" y2="5" style="visibility: inherit;" fill="rgb(0, 0, 0)" stroke="rgb(204, 204, 204)" stroke-width="1px"></line><line x1="111.53846153846155" y1="0" x2="111.53846153846155" y2="5" style="visibility: inherit;" fill="rgb(0, 0, 0)" stroke="rgb(204, 204, 204)" stroke-width="1px"></line><line x1="133.84615384615384" y1="0" x2="133.84615384615384" y2="5" style="visibility: inherit;" fill="rgb(0, 0, 0)" stroke="rgb(204, 204, 204)" stroke-width="1px"></line><line x1="156.15384615384616" y1="0" x2="156.15384615384616" y2="5" style="visibility: inherit;" fill="rgb(0, 0, 0)" stroke="rgb(204, 204, 204)" stroke-width="1px"></line><line x1="178.46153846153848" y1="0" x2="178.46153846153848" y2="5" style="visibility: inherit;" fill="rgb(0, 0, 0)" stroke="rgb(204, 204, 204)" stroke-width="1px"></line><line x1="200.76923076923077" y1="0" x2="200.76923076923077" y2="5" style="visibility: inherit;" fill="rgb(0, 0, 0)" stroke="rgb(204, 204, 204)" stroke-width="1px"></line><line x1="223.0769230769231" y1="0" x2="223.0769230769231" y2="5" style="visibility: inherit;" fill="rgb(0, 0, 0)" stroke="rgb(204, 204, 204)" stroke-width="1px"></line><line x1="245.3846153846154" y1="0" x2="245.3846153846154" y2="5" style="visibility: inherit;" fill="rgb(0, 0, 0)" stroke="rgb(204, 204, 204)" stroke-width="1px"></line><line x1="267.6923076923077" y1="0" x2="267.6923076923077" y2="5" style="visibility: inherit;" fill="rgb(0, 0, 0)" stroke="rgb(204, 204, 204)" stroke-width="1px"></line><line x1="290" y1="0" x2="290" y2="5" style="visibility: inherit;" fill="rgb(0, 0, 0)" stroke="rgb(204, 204, 204)" stroke-width="1px"></line></g><g transform="translate(0, 8)"><text x="0" y="0" dx="0em" dy="0.95em" style="text-anchor: middle; visibility: hidden; font-family: Roboto, sans-serif; font-size: 12px; font-weight: 200;" fill="rgb(33, 33, 33)" stroke="none" stroke-width="1px">-20</text><text x="22.30769230769231" y="0" dx="0em" dy="0.95em" style="text-anchor: middle; visibility: inherit; font-family: Roboto, sans-serif; font-size: 12px; font-weight: 200;" fill="rgb(33, 33, 33)" stroke="none" stroke-width="1px">0</text><text x="44.61538461538462" y="0" dx="0em" dy="0.95em" style="text-anchor: middle; visibility: hidden; font-family: Roboto, sans-serif; font-size: 12px; font-weight: 200;" fill="rgb(33, 33, 33)" stroke="none" stroke-width="1px">20</text><text x="66.92307692307692" y="0" dx="0em" dy="0.95em" style="text-anchor: middle; visibility: inherit; font-family: Roboto, sans-serif; font-size: 12px; font-weight: 200;" fill="rgb(33, 33, 33)" stroke="none" stroke-width="1px">40</text><text x="89.23076923076924" y="0" dx="0em" dy="0.95em" style="text-anchor: middle; visibility: hidden; font-family: Roboto, sans-serif; font-size: 12px; font-weight: 200;" fill="rgb(33, 33, 33)" stroke="none" stroke-width="1px">60</text><text x="111.53846153846155" y="0" dx="0em" dy="0.95em" style="text-anchor: middle; visibility: inherit; font-family: Roboto, sans-serif; font-size: 12px; font-weight: 200;" fill="rgb(33, 33, 33)" stroke="none" stroke-width="1px">80</text><text x="133.84615384615384" y="0" dx="0em" dy="0.95em" style="text-anchor: middle; visibility: hidden; font-family: Roboto, sans-serif; font-size: 12px; font-weight: 200;" fill="rgb(33, 33, 33)" stroke="none" stroke-width="1px">100</text><text x="156.15384615384616" y="0" dx="0em" dy="0.95em" style="text-anchor: middle; visibility: inherit; font-family: Roboto, sans-serif; font-size: 12px; font-weight: 200;" fill="rgb(33, 33, 33)" stroke="none" stroke-width="1px">120</text><text x="178.46153846153848" y="0" dx="0em" dy="0.95em" style="text-anchor: middle; visibility: hidden; font-family: Roboto, sans-serif; font-size: 12px; font-weight: 200;" fill="rgb(33, 33, 33)" stroke="none" stroke-width="1px">140</text><text x="200.76923076923077" y="0" dx="0em" dy="0.95em" style="text-anchor: middle; visibility: inherit; font-family: Roboto, sans-serif; font-size: 12px; font-weight: 200;" fill="rgb(33, 33, 33)" stroke="none" stroke-width="1px">160</text><text x="223.0769230769231" y="0" dx="0em" dy="0.95em" style="text-anchor: middle; visibility: hidden; font-family: Roboto, sans-serif; font-size: 12px; font-weight: 200;" fill="rgb(33, 33, 33)" stroke="none" stroke-width="1px">180</text><text x="245.3846153846154" y="0" dx="0em" dy="0.95em" style="text-anchor: middle; visibility: inherit; font-family: Roboto, sans-serif; font-size: 12px; font-weight: 200;" fill="rgb(33, 33, 33)" stroke="none" stroke-width="1px">200</text><text x="267.6923076923077" y="0" dx="0em" dy="0.95em" style="text-anchor: middle; visibility: hidden; font-family: Roboto, sans-serif; font-size: 12px; font-weight: 200;" fill="rgb(33, 33, 33)" stroke="none" stroke-width="1px">220</text><text x="290" y="0" dx="0em" dy="0.95em" style="text-anchor: middle; visibility: hidden; font-family: Roboto, sans-serif; font-size: 12px; font-weight: 200;" fill="rgb(33, 33, 33)" stroke="none" stroke-width="1px">240</text></g><line x1="0" y1="0" x2="290" y2="0" fill="rgb(0, 0, 0)" stroke="rgb(204, 204, 204)" stroke-width="1px"></line></g></g></g></g></svg>